<svg xmlns="http://www.w3.org/2000/svg" fill="currentColor" viewBox="0 0 24 24">
  <path d="M12 2C6.48 2 2 6.48 2 12s4.48 10 10 10
    10-4.48 10-10S17.52 2 12 2zm7.93 6h-3.07a15.96 15.96 0 00-1.46-3.55A8.03 8.03 0 0119.93 8zM12 4c.88 1.22 1.6 2.81 2.04 4H9.96C10.4 6.81 11.12 5.22 12 4zM4.07 8A8.03 8.03 0 018.6 4.45 15.96 15.96 0 007.14 8H4.07zM4 12c0-.68.07-1.34.18-2h3.38c-.11.66-.17 1.32-.17 2s.06 1.34.17 2H4.18A8.08 8.08 0 014 12zm.07 4h3.07a15.96 15.96 0 001.46 3.55A8.03 8.03 0 014.07 16zM12 20c-.88-1.22-1.6-2.81-2.04-4h4.08C13.6 17.19 12.88 18.78 12 20zm3.4-5H8.6c-.18-.65-.3-1.31-.36-2 .06-.69.18-1.35.36-2h6.8c.18.65.3 1.31.36 2-.06.69-.18 1.35-.36 2zm1.47 3.55c.58-1.1 1.07-2.3 1.46-3.55h3.07a8.03 8.03 0 01-4.53 3.55zM19.82 14h-3.38c.11-.66.17-1.32.17-2s-.06-1.34-.17-2h3.38c.11.66.18 1.32.18 2s-.07 1.34-.18 2z"/>
</svg>
